<?xml version="1.0" encoding="UTF-8" standalone="no"?>
<!DOCTYPE svg PUBLIC "-//W3C//DTD SVG 1.1//EN" "http://www.w3.org/Graphics/SVG/1.1/DTD/svg11.dtd">
<svg xmlns="http://www.w3.org/2000/svg" version="1.1" viewBox="0.00 0.00 500.00 500.00">
<g stroke-width="2.00" fill="none" stroke-linecap="butt">
<path stroke="#999999" vector-effect="non-scaling-stroke" d="
  M 95.97 59.70
  C 28.32 112.81 -6.33 197.68 3.90 283.33
  C 12.25 353.26 50.93 416.78 110.52 454.74
  Q 110.75 454.89 110.97 454.76
  Q 111.39 454.52 110.99 454.24
  C 66.49 423.52 33.90 384.34 16.45 333.53
  C -36.34 179.88 73.12 20.24 233.22 8.06
  C 277.29 4.70 319.21 11.40 360.41 28.73
  C 370.33 32.91 381.35 38.49 391.67 43.72
  Q 392.64 44.21 391.97 43.35
  Q 390.91 42.01 389.51 41.21
  C 297.27 -11.50 180.53 -6.70 95.97 59.70"
/>
<path stroke="#999999" vector-effect="non-scaling-stroke" d="
  M 33.20 351.46
  Q 32.82 351.26 32.63 350.84
  C 6.56 292.90 6.58 226.32 28.12 167.51
  Q 29.82 162.88 26.77 166.76
  Q 26.71 166.84 25.80 169.31
  C 2.06 233.63 6.26 304.73 38.69 365.61
  Q 38.78 365.78 38.79 365.95
  Q 38.79 366.13 38.77 366.27
  Q 38.68 366.93 38.37 366.34
  C -39.10 219.20 43.74 54.81 199.75 14.55
  Q 200.45 14.36 200.70 13.85
  Q 200.95 13.33 200.39 13.46
  C 127.93 30.73 68.56 78.23 33.29 143.32
  C 11.46 183.60 2.51 229.51 8.09 275.12
  C 13.91 322.77 32.28 364.14 59.98 403.00
  Q 60.36 403.53 60.89 403.63
  Q 61.70 403.78 61.22 403.10
  Q 49.72 386.98 40.09 369.68
  Q 39.92 369.37 40.02 369.19
  Q 40.17 368.90 40.33 369.19
  C 99.93 476.38 233.29 524.13 347.76 477.70
  C 393.19 459.28 429.06 425.60 456.34 384.58
  C 481.71 346.43 490.53 300.71 485.59 255.31
  Q 485.53 254.73 485.05 255.40
  A 0.46 0.42 -31.4 0 0 484.97 255.68
  Q 487.97 297.18 478.06 335.69
  Q 475.70 344.89 471.60 353.80
  Q 440.80 420.75 378.95 460.69
  Q 370.39 466.22 361.44 470.27
  C 321.89 488.15 277.11 493.63 233.96 490.40
  C 169.29 485.54 110.93 452.55 69.30 403.76
  C 44.03 374.15 27.40 334.33 19.97 296.30
  C 19.78 295.32 19.13 294.16 18.77 293.24
  A 0.52 0.52 0.0 0 0 17.77 293.41
  C 17.70 295.64 17.67 297.83 18.10 300.09
  Q 23.05 326.44 33.57 351.11
  Q 33.86 351.81 33.20 351.46"
/>
<path stroke="#999999" vector-effect="non-scaling-stroke" d="
  M 56.73 153.14
  Q 56.72 152.95 56.84 152.80
  Q 56.99 152.61 57.02 152.56
  C 100.56 72.54 187.36 26.72 278.18 34.49
  Q 369.78 42.32 433.00 107.86
  C 468.73 144.90 490.77 192.97 496.52 244.19
  Q 497.11 249.43 497.88 254.96
  A 0.58 0.58 0.0 0 0 499.02 255.00
  C 499.59 252.19 499.83 249.37 499.57 246.33
  C 484.04 60.52 257.23 -35.54 111.27 80.03
  C 61.83 119.18 31.43 177.87 27.86 240.76
  C 27.14 253.59 27.65 268.19 28.65 281.31
  Q 30.62 307.37 39.52 332.74
  Q 39.66 333.15 39.51 333.43
  Q 39.30 333.84 39.14 333.40
  C 13.50 261.44 22.77 185.23 65.68 122.18
  C 88.31 88.93 118.89 63.95 155.32 45.81
  C 163.16 41.91 171.24 38.53 178.53 33.60
  A 0.96 0.96 0.0 0 0 178.19 31.87
  C 173.48 30.89 163.70 34.46 159.17 36.42
  C 119.13 53.82 83.72 81.89 58.97 117.92
  Q 5.94 195.11 19.45 289.07
  C 27.30 343.69 55.82 394.97 97.14 431.24
  C 154.45 481.54 229.75 500.71 304.30 483.68
  C 372.41 468.13 431.35 419.49 459.21 354.98
  Q 461.64 349.34 457.30 353.68
  Q 456.46 354.52 455.43 357.32
  Q 454.61 359.55 453.75 361.03
  C 428.15 405.05 390.72 441.11 344.19 462.18
  Q 336.53 465.66 328.03 467.77
  Q 304.82 473.53 280.93 475.53
  Q 280.81 475.54 280.79 475.33
  Q 280.78 475.21 280.90 475.20
  C 358.31 464.04 420.54 415.59 447.64 342.00
  Q 448.13 340.67 447.98 340.31
  Q 447.11 338.28 446.20 340.30
  C 382.80 481.28 200.24 511.76 94.03 400.84
  C 67.33 372.95 49.40 336.85 41.38 299.09
  C 40.87 296.65 40.01 293.80 39.11 291.93
  Q 38.87 291.41 38.21 291.28
  Q 37.77 291.20 37.69 290.75
  Q 34.29 271.61 33.77 252.17
  C 33.69 249.12 33.02 244.94 33.25 242.50
  Q 36.60 208.05 50.27 176.31
  Q 50.29 176.26 50.34 176.27
  Q 50.50 176.30 50.44 176.46
  C 1.92 308.09 90.47 449.80 232.34 454.75
  C 236.13 454.89 240.10 454.51 243.99 454.47
  A 0.30 0.30 0.0 0 0 244.16 453.92
  Q 243.15 453.26 242.00 453.25
  Q 164.58 452.25 108.54 401.85
  C 61.96 359.95 37.84 296.66 43.41 234.34
  Q 44.25 224.85 47.01 214.93
  C 58.88 172.21 79.56 134.18 112.10 103.64
  C 116.96 99.08 124.46 93.27 130.27 87.66
  Q 133.18 84.86 129.22 85.62
  C 126.12 86.22 117.39 94.07 114.67 96.41
  Q 114.61 96.77 114.27 96.73
  Q 113.80 96.68 114.16 96.37
  Q 125.03 86.84 134.17 81.15
  C 147.65 72.74 163.78 66.57 179.23 60.05
  C 181.06 59.28 181.77 57.54 183.69 56.90
  C 298.55 18.57 417.58 80.73 459.11 191.97
  C 460.70 196.22 462.95 203.39 465.40 208.94
  A 0.85 0.85 0.0 0 0 466.97 208.92
  C 468.60 204.86 465.92 196.15 464.58 192.03
  Q 440.12 117.05 373.76 74.78
  C 326.90 44.93 270.56 32.83 215.74 42.23
  C 148.23 53.81 92.29 95.83 56.98 153.17
  Q 56.74 153.56 56.73 153.14"
/>
<path stroke="#808080" vector-effect="non-scaling-stroke" d="
  M 250.26 296.13
  A 0.33 0.33 0.0 0 1 249.71 296.13
  L 154.31 155.96
  Q 154.02 155.54 153.60 155.83
  L 141.14 164.25
  A 0.41 0.41 0.0 0 0 141.03 164.82
  L 242.63 314.14
  Q 242.97 314.63 243.56 314.72
  Q 244.75 314.88 245.15 316.06
  A 1.17 1.17 0.0 0 0 245.74 316.72
  Q 253.15 320.45 257.67 313.67
  Q 305.81 241.45 353.93 169.17
  A 0.49 0.48 33.5 0 0 353.79 168.49
  L 341.35 160.33
  Q 340.92 160.05 340.64 160.48
  L 250.26 296.13"
/>
<path stroke="#808080" vector-effect="non-scaling-stroke" d="
  M 122.43 363.50
  A 0.32 0.32 0.0 0 0 122.75 363.18
  L 122.75 188.16
  A 0.32 0.32 0.0 0 1 123.34 187.98
  L 238.63 363.36
  A 0.32 0.32 0.0 0 0 238.89 363.50
  L 262.79 363.50
  A 0.32 0.32 0.0 0 0 263.05 363.36
  L 376.38 190.80
  A 0.32 0.32 0.0 0 1 376.97 190.98
  L 377.07 363.18
  A 0.32 0.32 0.0 0 0 377.39 363.50
  L 400.68 363.50
  A 0.32 0.32 0.0 0 0 401.00 363.18
  L 401.00 171.57
  A 0.32 0.32 0.0 0 0 400.68 171.25
  L 363.03 171.25
  A 0.32 0.32 0.0 0 0 362.77 171.39
  L 251.09 339.11
  A 0.32 0.32 0.0 0 1 250.55 339.11
  L 138.93 171.39
  A 0.32 0.32 0.0 0 0 138.67 171.25
  L 99.07 171.25
  A 0.32 0.32 0.0 0 0 98.75 171.57
  L 98.75 363.18
  A 0.32 0.32 0.0 0 0 99.07 363.50
  L 122.43 363.50"
/>
<path stroke="#999999" vector-effect="non-scaling-stroke" d="
  M 49.05 235.25
  C 42.05 303.18 68.56 370.92 125.96 409.96
  Q 126.23 410.14 126.42 409.89
  Q 126.62 409.62 126.36 409.38
  C 121.86 405.22 115.83 401.21 111.74 397.63
  C 65.70 357.27 44.75 296.49 50.80 236.01
  Q 50.99 234.12 50.63 230.63
  A 0.30 0.30 0.0 0 0 50.06 230.55
  Q 49.34 232.37 49.05 235.25"
/>
<path stroke="#808080" vector-effect="non-scaling-stroke" d="
  M 147.75 250.43
  A 0.43 0.43 0.0 0 0 147.32 250.00
  L 132.18 250.00
  A 0.43 0.43 0.0 0 0 131.75 250.43
  L 131.75 371.57
  A 0.43 0.43 0.0 0 0 132.18 372.00
  L 147.32 372.00
  A 0.43 0.43 0.0 0 0 147.75 371.57
  L 147.75 250.43"
/>
<path stroke="#808080" vector-effect="non-scaling-stroke" d="
  M 363.25 250.26
  A 0.26 0.26 0.0 0 0 362.99 250.00
  L 347.51 250.00
  A 0.26 0.26 0.0 0 0 347.25 250.26
  L 347.25 371.74
  A 0.26 0.26 0.0 0 0 347.51 372.00
  L 362.99 372.00
  A 0.26 0.26 0.0 0 0 363.25 371.74
  L 363.25 250.26"
/>
<path stroke="#999999" vector-effect="non-scaling-stroke" d="
  M 128.07 463.88
  Q 172.15 487.12 220.48 495.56
  Q 226.67 496.65 234.58 496.82
  Q 234.68 496.82 234.69 496.73
  Q 234.69 496.69 234.69 496.65
  Q 234.70 496.48 234.52 496.46
  C 197.12 491.96 161.50 480.12 127.94 463.23
  A 0.29 0.29 0.0 0 0 127.53 463.59
  Q 127.59 463.76 127.79 463.80
  Q 127.99 463.84 128.07 463.88"
/>
<path stroke="#999999" vector-effect="non-scaling-stroke" d="
  M 106.44 103.24
  C 103.92 105.60 101.51 108.05 99.06 110.46
  Q 98.98 110.54 99.03 110.64
  Q 99.07 110.73 99.22 110.79
  Q 99.29 110.81 99.33 110.76
  L 106.71 103.48
  Q 106.75 103.43 106.73 103.38
  Q 106.68 103.27 106.51 103.22
  Q 106.47 103.21 106.44 103.24"
/>
<path stroke="#999999" vector-effect="non-scaling-stroke" d="
  M 281.05 479.37
  Q 224.45 484.33 171.34 464.55
  C 152.86 457.66 139.50 451.38 124.92 441.84
  Q 124.68 441.67 124.50 441.75
  Q 124.18 441.88 124.47 442.07
  C 173.02 474.63 231.82 488.18 289.10 478.68
  Q 290.47 478.45 289.08 478.47
  C 286.42 478.52 283.31 479.17 281.05 479.37"
/>
</g>
<path fill="#ffffff" d="
  M 0.00 0.00
  L 500.00 0.00
  L 500.00 500.00
  L 0.00 500.00
  L 0.00 0.00
  Z
  M 95.97 59.70
  C 28.32 112.81 -6.33 197.68 3.90 283.33
  C 12.25 353.26 50.93 416.78 110.52 454.74
  Q 110.75 454.89 110.97 454.76
  Q 111.39 454.52 110.99 454.24
  C 66.49 423.52 33.90 384.34 16.45 333.53
  C -36.34 179.88 73.12 20.24 233.22 8.06
  C 277.29 4.70 319.21 11.40 360.41 28.73
  C 370.33 32.91 381.35 38.49 391.67 43.72
  Q 392.64 44.21 391.97 43.35
  Q 390.91 42.01 389.51 41.21
  C 297.27 -11.50 180.53 -6.70 95.97 59.70
  Z
  M 33.20 351.46
  Q 32.82 351.26 32.63 350.84
  C 6.56 292.90 6.58 226.32 28.12 167.51
  Q 29.82 162.88 26.77 166.76
  Q 26.71 166.84 25.80 169.31
  C 2.06 233.63 6.26 304.73 38.69 365.61
  Q 38.78 365.78 38.79 365.95
  Q 38.79 366.13 38.77 366.27
  Q 38.68 366.93 38.37 366.34
  C -39.10 219.20 43.74 54.81 199.75 14.55
  Q 200.45 14.36 200.70 13.85
  Q 200.95 13.33 200.39 13.46
  C 127.93 30.73 68.56 78.23 33.29 143.32
  C 11.46 183.60 2.51 229.51 8.09 275.12
  C 13.91 322.77 32.28 364.14 59.98 403.00
  Q 60.36 403.53 60.89 403.63
  Q 61.70 403.78 61.22 403.10
  Q 49.72 386.98 40.09 369.68
  Q 39.92 369.37 40.02 369.19
  Q 40.17 368.90 40.33 369.19
  C 99.93 476.38 233.29 524.13 347.76 477.70
  C 393.19 459.28 429.06 425.60 456.34 384.58
  C 481.71 346.43 490.53 300.71 485.59 255.31
  Q 485.53 254.73 485.05 255.40
  A 0.46 0.42 -31.4 0 0 484.97 255.68
  Q 487.97 297.18 478.06 335.69
  Q 475.70 344.89 471.60 353.80
  Q 440.80 420.75 378.95 460.69
  Q 370.39 466.22 361.44 470.27
  C 321.89 488.15 277.11 493.63 233.96 490.40
  C 169.29 485.54 110.93 452.55 69.30 403.76
  C 44.03 374.15 27.40 334.33 19.97 296.30
  C 19.78 295.32 19.13 294.16 18.77 293.24
  A 0.52 0.52 0.0 0 0 17.77 293.41
  C 17.70 295.64 17.67 297.83 18.10 300.09
  Q 23.05 326.44 33.57 351.11
  Q 33.86 351.81 33.20 351.46
  Z
  M 56.73 153.14
  Q 56.72 152.95 56.84 152.80
  Q 56.99 152.61 57.02 152.56
  C 100.56 72.54 187.36 26.72 278.18 34.49
  Q 369.78 42.32 433.00 107.86
  C 468.73 144.90 490.77 192.97 496.52 244.19
  Q 497.11 249.43 497.88 254.96
  A 0.58 0.58 0.0 0 0 499.02 255.00
  C 499.59 252.19 499.83 249.37 499.57 246.33
  C 484.04 60.52 257.23 -35.54 111.27 80.03
  C 61.83 119.18 31.43 177.87 27.86 240.76
  C 27.14 253.59 27.65 268.19 28.65 281.31
  Q 30.62 307.37 39.52 332.74
  Q 39.66 333.15 39.51 333.43
  Q 39.30 333.84 39.14 333.40
  C 13.50 261.44 22.77 185.23 65.68 122.18
  C 88.31 88.93 118.89 63.95 155.32 45.81
  C 163.16 41.91 171.24 38.53 178.53 33.60
  A 0.96 0.96 0.0 0 0 178.19 31.87
  C 173.48 30.89 163.70 34.46 159.17 36.42
  C 119.13 53.82 83.72 81.89 58.97 117.92
  Q 5.94 195.11 19.45 289.07
  C 27.30 343.69 55.82 394.97 97.14 431.24
  C 154.45 481.54 229.75 500.71 304.30 483.68
  C 372.41 468.13 431.35 419.49 459.21 354.98
  Q 461.64 349.34 457.30 353.68
  Q 456.46 354.52 455.43 357.32
  Q 454.61 359.55 453.75 361.03
  C 428.15 405.05 390.72 441.11 344.19 462.18
  Q 336.53 465.66 328.03 467.77
  Q 304.82 473.53 280.93 475.53
  Q 280.81 475.54 280.79 475.33
  Q 280.78 475.21 280.90 475.20
  C 358.31 464.04 420.54 415.59 447.64 342.00
  Q 448.13 340.67 447.98 340.31
  Q 447.11 338.28 446.20 340.30
  C 382.80 481.28 200.24 511.76 94.03 400.84
  C 67.33 372.95 49.40 336.85 41.38 299.09
  C 40.87 296.65 40.01 293.80 39.11 291.93
  Q 38.87 291.41 38.21 291.28
  Q 37.77 291.20 37.69 290.75
  Q 34.29 271.61 33.77 252.17
  C 33.69 249.12 33.02 244.94 33.25 242.50
  Q 36.60 208.05 50.27 176.31
  Q 50.29 176.26 50.34 176.27
  Q 50.50 176.30 50.44 176.46
  C 1.92 308.09 90.47 449.80 232.34 454.75
  C 236.13 454.89 240.10 454.51 243.99 454.47
  A 0.30 0.30 0.0 0 0 244.16 453.92
  Q 243.15 453.26 242.00 453.25
  Q 164.58 452.25 108.54 401.85
  C 61.96 359.95 37.84 296.66 43.41 234.34
  Q 44.25 224.85 47.01 214.93
  C 58.88 172.21 79.56 134.18 112.10 103.64
  C 116.96 99.08 124.46 93.27 130.27 87.66
  Q 133.18 84.86 129.22 85.62
  C 126.12 86.22 117.39 94.07 114.67 96.41
  Q 114.61 96.77 114.27 96.73
  Q 113.80 96.68 114.16 96.37
  Q 125.03 86.84 134.17 81.15
  C 147.65 72.74 163.78 66.57 179.23 60.05
  C 181.06 59.28 181.77 57.54 183.69 56.90
  C 298.55 18.57 417.58 80.73 459.11 191.97
  C 460.70 196.22 462.95 203.39 465.40 208.94
  A 0.85 0.85 0.0 0 0 466.97 208.92
  C 468.60 204.86 465.92 196.15 464.58 192.03
  Q 440.12 117.05 373.76 74.78
  C 326.90 44.93 270.56 32.83 215.74 42.23
  C 148.23 53.81 92.29 95.83 56.98 153.17
  Q 56.74 153.56 56.73 153.14
  Z
  M 250.26 296.13
  A 0.33 0.33 0.0 0 1 249.71 296.13
  L 154.31 155.96
  Q 154.02 155.54 153.60 155.83
  L 141.14 164.25
  A 0.41 0.41 0.0 0 0 141.03 164.82
  L 242.63 314.14
  Q 242.97 314.63 243.56 314.72
  Q 244.75 314.88 245.15 316.06
  A 1.17 1.17 0.0 0 0 245.74 316.72
  Q 253.15 320.45 257.67 313.67
  Q 305.81 241.45 353.93 169.17
  A 0.49 0.48 33.5 0 0 353.79 168.49
  L 341.35 160.33
  Q 340.92 160.05 340.64 160.48
  L 250.26 296.13
  Z
  M 122.43 363.50
  A 0.32 0.32 0.0 0 0 122.75 363.18
  L 122.75 188.16
  A 0.32 0.32 0.0 0 1 123.34 187.98
  L 238.63 363.36
  A 0.32 0.32 0.0 0 0 238.89 363.50
  L 262.79 363.50
  A 0.32 0.32 0.0 0 0 263.05 363.36
  L 376.38 190.80
  A 0.32 0.32 0.0 0 1 376.97 190.98
  L 377.07 363.18
  A 0.32 0.32 0.0 0 0 377.39 363.50
  L 400.68 363.50
  A 0.32 0.32 0.0 0 0 401.00 363.18
  L 401.00 171.57
  A 0.32 0.32 0.0 0 0 400.68 171.25
  L 363.03 171.25
  A 0.32 0.32 0.0 0 0 362.77 171.39
  L 251.09 339.11
  A 0.32 0.32 0.0 0 1 250.55 339.11
  L 138.93 171.39
  A 0.32 0.32 0.0 0 0 138.67 171.25
  L 99.07 171.25
  A 0.32 0.32 0.0 0 0 98.75 171.57
  L 98.75 363.18
  A 0.32 0.32 0.0 0 0 99.07 363.50
  L 122.43 363.50
  Z
  M 49.05 235.25
  C 42.05 303.18 68.56 370.92 125.96 409.96
  Q 126.23 410.14 126.42 409.89
  Q 126.62 409.62 126.36 409.38
  C 121.86 405.22 115.83 401.21 111.74 397.63
  C 65.70 357.27 44.75 296.49 50.80 236.01
  Q 50.99 234.12 50.63 230.63
  A 0.30 0.30 0.0 0 0 50.06 230.55
  Q 49.34 232.37 49.05 235.25
  Z
  M 147.75 250.43
  A 0.43 0.43 0.0 0 0 147.32 250.00
  L 132.18 250.00
  A 0.43 0.43 0.0 0 0 131.75 250.43
  L 131.75 371.57
  A 0.43 0.43 0.0 0 0 132.18 372.00
  L 147.32 372.00
  A 0.43 0.43 0.0 0 0 147.75 371.57
  L 147.75 250.43
  Z
  M 363.25 250.26
  A 0.26 0.26 0.0 0 0 362.99 250.00
  L 347.51 250.00
  A 0.26 0.26 0.0 0 0 347.25 250.26
  L 347.25 371.74
  A 0.26 0.26 0.0 0 0 347.51 372.00
  L 362.99 372.00
  A 0.26 0.26 0.0 0 0 363.25 371.74
  L 363.25 250.26
  Z
  M 128.07 463.88
  Q 172.15 487.12 220.48 495.56
  Q 226.67 496.65 234.58 496.82
  Q 234.68 496.82 234.69 496.73
  Q 234.69 496.69 234.69 496.65
  Q 234.70 496.48 234.52 496.46
  C 197.12 491.96 161.50 480.12 127.94 463.23
  A 0.29 0.29 0.0 0 0 127.53 463.59
  Q 127.59 463.76 127.79 463.80
  Q 127.99 463.84 128.07 463.88
  Z"
/>
<path fill="#333333" d="
  M 3.90 283.33
  C -6.33 197.68 28.32 112.81 95.97 59.70
  C 180.53 -6.70 297.27 -11.50 389.51 41.21
  Q 390.91 42.01 391.97 43.35
  Q 392.64 44.21 391.67 43.72
  C 381.35 38.49 370.33 32.91 360.41 28.73
  C 319.21 11.40 277.29 4.70 233.22 8.06
  C 73.12 20.24 -36.34 179.88 16.45 333.53
  C 33.90 384.34 66.49 423.52 110.99 454.24
  Q 111.39 454.52 110.97 454.76
  Q 110.75 454.89 110.52 454.74
  C 50.93 416.78 12.25 353.26 3.90 283.33
  Z"
/>
<path fill="#333333" d="
  M 33.57 351.11
  Q 23.05 326.44 18.10 300.09
  C 17.67 297.83 17.70 295.64 17.77 293.41
  A 0.52 0.52 0.0 0 1 18.77 293.24
  C 19.13 294.16 19.78 295.32 19.97 296.30
  C 27.40 334.33 44.03 374.15 69.30 403.76
  C 110.93 452.55 169.29 485.54 233.96 490.40
  C 277.11 493.63 321.89 488.15 361.44 470.27
  Q 370.39 466.22 378.95 460.69
  Q 440.80 420.75 471.60 353.80
  Q 475.70 344.89 478.06 335.69
  Q 487.97 297.18 484.97 255.68
  A 0.46 0.42 -31.4 0 1 485.05 255.40
  Q 485.53 254.73 485.59 255.31
  C 490.53 300.71 481.71 346.43 456.34 384.58
  C 429.06 425.60 393.19 459.28 347.76 477.70
  C 233.29 524.13 99.93 476.38 40.33 369.19
  Q 40.17 368.90 40.02 369.19
  Q 39.92 369.37 40.09 369.68
  Q 49.72 386.98 61.22 403.10
  Q 61.70 403.78 60.89 403.63
  Q 60.36 403.53 59.98 403.00
  C 32.28 364.14 13.91 322.77 8.09 275.12
  C 2.51 229.51 11.46 183.60 33.29 143.32
  C 68.56 78.23 127.93 30.73 200.39 13.46
  Q 200.95 13.33 200.70 13.85
  Q 200.45 14.36 199.75 14.55
  C 43.74 54.81 -39.10 219.20 38.37 366.34
  Q 38.68 366.93 38.77 366.27
  Q 38.79 366.13 38.79 365.95
  Q 38.78 365.78 38.69 365.61
  C 6.26 304.73 2.06 233.63 25.80 169.31
  Q 26.71 166.84 26.77 166.76
  Q 29.82 162.88 28.12 167.51
  C 6.58 226.32 6.56 292.90 32.63 350.84
  Q 32.82 351.26 33.20 351.46
  Q 33.86 351.81 33.57 351.11
  Z"
/>
<path fill="#333333" d="
  M 56.98 153.17
  C 92.29 95.83 148.23 53.81 215.74 42.23
  C 270.56 32.83 326.90 44.93 373.76 74.78
  Q 440.12 117.05 464.58 192.03
  C 465.92 196.15 468.60 204.86 466.97 208.92
  A 0.85 0.85 0.0 0 1 465.40 208.94
  C 462.95 203.39 460.70 196.22 459.11 191.97
  C 417.58 80.73 298.55 18.57 183.69 56.90
  C 181.77 57.54 181.06 59.28 179.23 60.05
  C 163.78 66.57 147.65 72.74 134.17 81.15
  Q 125.03 86.84 114.16 96.37
  Q 113.80 96.68 114.27 96.73
  Q 114.61 96.77 114.67 96.41
  C 117.39 94.07 126.12 86.22 129.22 85.62
  Q 133.18 84.86 130.27 87.66
  C 124.46 93.27 116.96 99.08 112.10 103.64
  C 79.56 134.18 58.88 172.21 47.01 214.93
  Q 44.25 224.85 43.41 234.34
  C 37.84 296.66 61.96 359.95 108.54 401.85
  Q 164.58 452.25 242.00 453.25
  Q 243.15 453.26 244.16 453.92
  A 0.30 0.30 0.0 0 1 243.99 454.47
  C 240.10 454.51 236.13 454.89 232.34 454.75
  C 90.47 449.80 1.92 308.09 50.44 176.46
  Q 50.50 176.30 50.34 176.27
  Q 50.29 176.26 50.27 176.31
  Q 36.60 208.05 33.25 242.50
  C 33.02 244.94 33.69 249.12 33.77 252.17
  Q 34.29 271.61 37.69 290.75
  Q 37.77 291.20 38.21 291.28
  Q 38.87 291.41 39.11 291.93
  C 40.01 293.80 40.87 296.65 41.38 299.09
  C 49.40 336.85 67.33 372.95 94.03 400.84
  C 200.24 511.76 382.80 481.28 446.20 340.30
  Q 447.11 338.28 447.98 340.31
  Q 448.13 340.67 447.64 342.00
  C 420.54 415.59 358.31 464.04 280.90 475.20
  Q 280.78 475.21 280.79 475.33
  Q 280.81 475.54 280.93 475.53
  Q 304.82 473.53 328.03 467.77
  Q 336.53 465.66 344.19 462.18
  C 390.72 441.11 428.15 405.05 453.75 361.03
  Q 454.61 359.55 455.43 357.32
  Q 456.46 354.52 457.30 353.68
  Q 461.64 349.34 459.21 354.98
  C 431.35 419.49 372.41 468.13 304.30 483.68
  C 229.75 500.71 154.45 481.54 97.14 431.24
  C 55.82 394.97 27.30 343.69 19.45 289.07
  Q 5.94 195.11 58.97 117.92
  C 83.72 81.89 119.13 53.82 159.17 36.42
  C 163.70 34.46 173.48 30.89 178.19 31.87
  A 0.96 0.96 0.0 0 1 178.53 33.60
  C 171.24 38.53 163.16 41.91 155.32 45.81
  C 118.89 63.95 88.31 88.93 65.68 122.18
  C 22.77 185.23 13.50 261.44 39.14 333.40
  Q 39.30 333.84 39.51 333.43
  Q 39.66 333.15 39.52 332.74
  Q 30.62 307.37 28.65 281.31
  C 27.65 268.19 27.14 253.59 27.86 240.76
  C 31.43 177.87 61.83 119.18 111.27 80.03
  C 257.23 -35.54 484.04 60.52 499.57 246.33
  C 499.83 249.37 499.59 252.19 499.02 255.00
  A 0.58 0.58 0.0 0 1 497.88 254.96
  Q 497.11 249.43 496.52 244.19
  C 490.77 192.97 468.73 144.90 433.00 107.86
  Q 369.78 42.32 278.18 34.49
  C 187.36 26.72 100.56 72.54 57.02 152.56
  Q 56.99 152.61 56.84 152.80
  Q 56.72 152.95 56.73 153.14
  Q 56.74 153.56 56.98 153.17
  Z
  M 106.44 103.24
  C 103.92 105.60 101.51 108.05 99.06 110.46
  Q 98.98 110.54 99.03 110.64
  Q 99.07 110.73 99.22 110.79
  Q 99.29 110.81 99.33 110.76
  L 106.71 103.48
  Q 106.75 103.43 106.73 103.38
  Q 106.68 103.27 106.51 103.22
  Q 106.47 103.21 106.44 103.24
  Z
  M 281.05 479.37
  Q 224.45 484.33 171.34 464.55
  C 152.86 457.66 139.50 451.38 124.92 441.84
  Q 124.68 441.67 124.50 441.75
  Q 124.18 441.88 124.47 442.07
  C 173.02 474.63 231.82 488.18 289.10 478.68
  Q 290.47 478.45 289.08 478.47
  C 286.42 478.52 283.31 479.17 281.05 479.37
  Z"
/>
<path fill="#ffffff" d="
  M 99.06 110.46
  C 101.51 108.05 103.92 105.60 106.44 103.24
  Q 106.47 103.21 106.51 103.22
  Q 106.68 103.27 106.73 103.38
  Q 106.75 103.43 106.71 103.48
  L 99.33 110.76
  Q 99.29 110.81 99.22 110.79
  Q 99.07 110.73 99.03 110.64
  Q 98.98 110.54 99.06 110.46
  Z"
/>
<path fill="#000000" d="
  M 250.26 296.13
  L 340.64 160.48
  Q 340.92 160.05 341.35 160.33
  L 353.79 168.49
  A 0.49 0.48 33.5 0 1 353.93 169.17
  Q 305.81 241.45 257.67 313.67
  Q 253.15 320.45 245.74 316.72
  A 1.17 1.17 0.0 0 1 245.15 316.06
  Q 244.75 314.88 243.56 314.72
  Q 242.97 314.63 242.63 314.14
  L 141.03 164.82
  A 0.41 0.41 0.0 0 1 141.14 164.25
  L 153.60 155.83
  Q 154.02 155.54 154.31 155.96
  L 249.71 296.13
  A 0.33 0.33 0.0 0 0 250.26 296.13
  Z"
/>
<path fill="#000000" d="
  M 122.43 363.50
  L 99.07 363.50
  A 0.32 0.32 0.0 0 1 98.75 363.18
  L 98.75 171.57
  A 0.32 0.32 0.0 0 1 99.07 171.25
  L 138.67 171.25
  A 0.32 0.32 0.0 0 1 138.93 171.39
  L 250.55 339.11
  A 0.32 0.32 0.0 0 0 251.09 339.11
  L 362.77 171.39
  A 0.32 0.32 0.0 0 1 363.03 171.25
  L 400.68 171.25
  A 0.32 0.32 0.0 0 1 401.00 171.57
  L 401.00 363.18
  A 0.32 0.32 0.0 0 1 400.68 363.50
  L 377.39 363.50
  A 0.32 0.32 0.0 0 1 377.07 363.18
  L 376.97 190.98
  A 0.32 0.32 0.0 0 0 376.38 190.80
  L 263.05 363.36
  A 0.32 0.32 0.0 0 1 262.79 363.50
  L 238.89 363.50
  A 0.32 0.32 0.0 0 1 238.63 363.36
  L 123.34 187.98
  A 0.32 0.32 0.0 0 0 122.75 188.16
  L 122.75 363.18
  A 0.32 0.32 0.0 0 1 122.43 363.50
  Z"
/>
<path fill="#333333" d="
  M 125.96 409.96
  C 68.56 370.92 42.05 303.18 49.05 235.25
  Q 49.34 232.37 50.06 230.55
  A 0.30 0.30 0.0 0 1 50.63 230.63
  Q 50.99 234.12 50.80 236.01
  C 44.75 296.49 65.70 357.27 111.74 397.63
  C 115.83 401.21 121.86 405.22 126.36 409.38
  Q 126.62 409.62 126.42 409.89
  Q 126.23 410.14 125.96 409.96
  Z"
/>
<rect fill="#000000" x="131.75" y="250.00" width="16.00" height="122.00" rx="0.43"/>
<rect fill="#000000" x="347.25" y="250.00" width="16.00" height="122.00" rx="0.26"/>
<path fill="#ffffff" d="
  M 281.05 479.37
  C 283.31 479.17 286.42 478.52 289.08 478.47
  Q 290.47 478.45 289.10 478.68
  C 231.82 488.18 173.02 474.63 124.47 442.07
  Q 124.18 441.88 124.50 441.75
  Q 124.68 441.67 124.92 441.84
  C 139.50 451.38 152.86 457.66 171.34 464.55
  Q 224.45 484.33 281.05 479.37
  Z"
/>
<path fill="#333333" d="
  M 127.79 463.80
  Q 127.59 463.76 127.53 463.59
  A 0.29 0.29 0.0 0 1 127.94 463.23
  C 161.50 480.12 197.12 491.96 234.52 496.46
  Q 234.70 496.48 234.69 496.65
  Q 234.69 496.69 234.69 496.73
  Q 234.68 496.82 234.58 496.82
  Q 226.67 496.65 220.48 495.56
  Q 172.15 487.12 128.07 463.88
  Q 127.99 463.84 127.79 463.80
  Z"
/>
</svg>
